
<svg xmlns="http://www.w3.org/2000/svg" version="1.1" xmlns:xlink="http://www.w3.org/1999/xlink" preserveAspectRatio="none" x="0px" y="0px" width="55px" height="66px" viewBox="0 0 55 66">
<defs>
<g id="rebus_beef_0_Layer0_0_FILL">
<path fill="#FFCC01" stroke="none" d="
M 8.35 2.15
Q 8.35 1.25 7.7 0.6 7.1 0 6.2 0 5.3 0 4.65 0.6 4.05 1.25 4.05 2.15 4.05 3.05 4.65 3.65 5.3 4.3 6.2 4.3 7.1 4.3 7.7 3.65 8.35 3.05 8.35 2.15
M 17.15 0.6
Q 16.55 1.25 16.55 2.15 16.55 3.05 17.15 3.65 17.8 4.3 18.7 4.3 19.6 4.3 20.2 3.65 20.85 3.05 20.85 2.15 20.85 1.25 20.2 0.6 19.6 0 18.7 0 17.8 0 17.15 0.6
M 0 30.05
L 0 36.05 25 36.05 25 30.05 0 30.05
M 0 42.15
L 0 48.25 25 48.25 25 42.15 0 42.15
M 25 23.15
L 25 18.25 0 18.25 0 23.15 25 23.15 Z"/>

<path fill="#1C1E14" stroke="none" d="
M 25 48.25
L 0 48.25
Q 2.05 58.7 9.7 60.15
L 12.15 66.15 14.5 60.25
Q 24.1 59.25 25 48.25
M 0 36.05
L 0 42.15 25 42.15 25 36.05 0 36.05
M 12.05 6.45
Q 2.35 6.65 0 18.25
L 25 18.25
Q 24 6.25 12.05 6.45
M 25 23.8
L 25 23.15 0 23.15 0 30.05 25 30.05 25 23.8 Z"/>

<path fill="#D0D0D0" stroke="none" d="
M 51.7 18.25
Q 58.2 11.4 51.7 5.55
L 33.05 5.65 25 18.25 51.7 18.25 Z"/>

<path fill="#DADADA" stroke="none" d="
M 51.7 36.5
Q 58.2 30.65 51.7 23.8
L 25 23.8 33.05 36.4 51.7 36.5 Z"/>
</g>
</defs>

<g transform="matrix( 1.00091552734375, 0, 0, 0.9977264404296875, 0,0) ">
<g transform="matrix( 1, 0, 0, 1, 0,0) ">
<use xlink:href="#rebus_beef_0_Layer0_0_FILL"/>
</g>
</g>
</svg>
