
<svg xmlns="http://www.w3.org/2000/svg" version="1.1" xmlns:xlink="http://www.w3.org/1999/xlink" preserveAspectRatio="none" x="0px" y="0px" width="80px" height="58px" viewBox="0 0 80 58">
<defs>
<path id="rebus_bat_0_Layer0_0_1_STROKES" stroke="#4EEFCB" stroke-width="5" stroke-linejoin="round" stroke-linecap="round" fill="none" d="
M 3.25 0.25
L 4.3 0.25
Q 5.1 0 6 0 6.95 0 7.75 0.25
L 65.05 0.25
Q 65.85 0 66.75 0 67.7 0 68.5 0.25
L 69.5 0.25
M 68.5 0.25
Q 69.9 0.65 70.95 1.8 72.75 3.6 72.75 6.15 72.75 8.7 70.95 10.5 69.55 12 67.7 12.3
L 36.3 25.5
Q 34.25 30.4 30.95 35.15 30.1 36.4 29.15 37.65
L 29.15 37.7
Q 29.05 37.85 29 38 28.95 38.1 28.9 38.25 28.5 39.45 28.5 40.85 28.5 44.05 30.7 46.3 32.95 48.6 36 48.6 39.1 48.6 41.25 46.3 43.05 44.5 43.45 42.05
M 65.05 0.25
L 68.5 0.25
M 4.3 0.25
L 7.75 0.25
M 36.3 25.5
L 4.85 12.25
Q 3.1 11.9 1.75 10.5 0 8.7 0 6.15 0 3.6 1.75 1.8 2.9 0.65 4.3 0.25
M 29.15 37.65
Q 29.7 36.4 30.7 35.4 30.8 35.3 30.95 35.15"/>
</defs>

<g id="MovieClip2" transform="matrix( 1.0034332275390625, 0, 0, 1.02880859375, 3,4) ">
<g transform="matrix( 1, 0, 0, 1, 0,0) ">
<use xlink:href="#rebus_bat_0_Layer0_0_1_STROKES"/>
</g>
</g>
</svg>
