
<svg xmlns="http://www.w3.org/2000/svg" version="1.1" xmlns:xlink="http://www.w3.org/1999/xlink" preserveAspectRatio="none" x="0px" y="0px" width="79px" height="48px" viewBox="0 0 79 48">
<defs>
<g id="card_rebus_0_Layer0_0_FILL">
<path fill="#1394EA" stroke="none" d="
M 18.5 40.35
Q 17.2 41.65 17.2 43.5 17.2 45.35 18.5 46.7 19.85 48 21.7 48 23.55 48 24.9 46.7 26.2 45.35 26.2 43.5 26.2 41.65 24.9 40.35 23.55 39 21.7 39 19.85 39 18.5 40.35
M 61.2 20.9
Q 63.75 20.9 65.55 22.7 66.5 23.65 67 24.9
L 78.95 20.25 74.3 8.55 54.6 16.55 50.3 6.2
Q 45.55 -2.1 36.05 0.7
L 6.9 12.1 6.9 12.15
Q -1.15 15.35 0.2 25.35
L 8.95 47.45 15.7 44.85
Q 15.25 43.8 15.25 42.55 15.25 40 17.05 38.15 18.9 36.35 21.45 36.35 24 36.35 25.8 38.15 26.8 39.15 27.25 40.35
L 55.45 29.4
Q 55 28.25 55 27.1 55 24.55 56.8 22.7 58.65 20.9 61.2 20.9
M 14.8 32
L 10.9 22.2 40.1 10.95 43.95 20.65 14.8 32
M 64.65 24.3
Q 63.3 22.95 61.45 22.95 59.6 22.95 58.25 24.3 56.95 25.6 56.95 27.45 56.95 29.3 58.25 30.65 59.6 31.95 61.45 31.95 63.3 31.95 64.65 30.65 65.95 29.3 65.95 27.45 65.95 25.6 64.65 24.3 Z"/>
</g>
</defs>

<g transform="matrix( 1.000640869140625, 0, 0, 1, 0,0) ">
<g transform="matrix( 1, 0, 0, 1, 0,0) ">
<use xlink:href="#card_rebus_0_Layer0_0_FILL"/>
</g>
</g>
</svg>
