
<svg xmlns="http://www.w3.org/2000/svg" version="1.1" xmlns:xlink="http://www.w3.org/1999/xlink" preserveAspectRatio="none" x="0px" y="0px" width="90px" height="30px" viewBox="0 0 90 30">
<defs>
<g id="rebus_face_0_Layer0_0_FILL">
<path fill="#4EEFCB" stroke="none" d="
M 21.6 8.35
Q 21.35 6.3 20.5 4.75 19.7 3.2 18.4 2.15 17.1 1.1 15.45 0.55 13.75 0 11.8 0 10.2 0 8.85 0.35 7.5 0.7 6.35 1.4 4.15 2.85 2.7 5.1 1.3 7.35 0.65 10.15 0 12.95 0 15.75 0 18.65 0.55 21.4 1.05 24.15 2.4 26.35 3.7 28.55 5.95 29.9 8.15 31.25 11.55 31.25 13.95 31.25 15.9 30.45 17.8 29.6 19.2 28.1 20.6 26.6 21.35 24.6 22.1 22.6 22.1 20.3 22.1 18.5 21.55 16.7 21 14.95 19.8 13.6 18.5 12.15 16.65 11.3 14.8 10.5 12.85 10.5 10.65 10.5 9 11.25 7.3 12.05 6.05 13.85
L 6 13.75 6.3 10.9
Q 6.6 9.35 7.25 7.95 7.9 6.55 9 5.55 10.1 4.6 11.75 4.6 13.35 4.6 14.4 5.7 15.5 6.85 15.8 8.35
L 21.6 8.35
M 7.8 24.55
Q 7.2 23.75 6.85 22.7 6.55 21.7 6.55 20.7 6.55 19.55 6.85 18.55 7.15 17.55 7.75 16.75 8.35 16 9.25 15.55 10.2 15.1 11.4 15.1 12.55 15.1 13.45 15.6 14.3 16.1 14.9 16.9 15.45 17.65 15.75 18.7 16 19.7 16 20.75 16 21.8 15.7 22.8 15.4 23.75 14.8 24.55 14.2 25.35 13.35 25.8 12.5 26.25 11.4 26.25 10.25 26.25 9.35 25.8 8.4 25.35 7.8 24.55 Z"/>

<path fill="#F7A40A" stroke="none" d="
M 38.85 0.6
L 34 0.6
Q 33.75 2.3 32.9 3.5 32.1 4.65 30.9 5.35 29.75 6.05 28.25 6.35 26.75 6.6 25.2 6.6
L 25.2 11.15 32.75 11.15 32.75 30.7 38.85 30.7 38.85 0.6 Z"/>

<path fill="#F55689" stroke="none" d="
M 65.85 12.2
Q 66.9 10.5 66.9 8.35 66.9 6.3 66 4.75 65.1 3.2 63.65 2.15 62.2 1.05 60.4 0.55 58.6 0 56.8 0 54.5 0 52.6 0.75 50.7 1.5 49.35 2.9 48 4.25 47.25 6.2 46.5 8.1 46.4 10.4
L 52.2 10.4
Q 52.15 8.1 53.35 6.55 53.95 5.8 54.8 5.4 55.7 5 56.85 5 58.55 5 59.85 6.05 61.1 7.1 61.1 9.05 61.1 10.3 60.5 11.1 59.85 11.85 58.9 12.25 57.95 12.7 56.8 12.75
L 54.7 12.75 54.7 17.05 57.05 17.15
Q 58.25 17.2 59.3 17.6 60.35 18 61 18.9 61.7 19.8 61.7 21.55 61.7 22.65 61.3 23.5 60.95 24.35 60.25 25 58.85 26.25 56.75 26.25 55.45 26.25 54.45 25.8 53.5 25.35 52.85 24.55 52.2 23.75 51.85 22.65 51.5 21.55 51.45 20.35
L 45.7 20.35
Q 45.65 22.95 46.45 25 47.25 27 48.7 28.4 50.15 29.8 52.25 30.55 54.3 31.25 56.85 31.25 59.05 31.25 61.05 30.6 63.1 29.95 64.65 28.75 66.2 27.45 67.1 25.6 68.05 23.75 68.05 21.4 68.05 18.85 66.6 17 65.9 16.05 64.95 15.45 63.95 14.85 62.7 14.6
L 62.7 14.5
Q 64.8 13.9 65.85 12.2 Z"/>

<path fill="#1494EA" stroke="none" d="
M 89.3 5.65
L 89.3 0.6 72.5 0.6 69.5 17.25 75 17.25
Q 75.95 16 76.95 15.4 78 14.85 79.6 14.85 80.9 14.85 81.85 15.25 82.75 15.7 83.45 16.45 84.15 17.25 84.5 18.25 84.85 19.3 84.85 20.45 84.85 21.6 84.45 22.65 84.1 23.7 83.4 24.5 82.75 25.3 81.8 25.8 80.85 26.25 79.6 26.25 78.6 26.25 77.75 25.95 76.9 25.65 76.2 25.05 74.9 23.8 74.7 21.75
L 68.6 21.75
Q 68.6 24.15 69.55 25.9 70.45 27.7 72 28.9 73.55 30.1 75.55 30.7 77.55 31.25 79.75 31.25 82.05 31.3 84.05 30.5 86.05 29.7 87.6 28.25 89.15 26.8 90.05 24.8 90.95 22.8 90.95 20.45 90.95 18.35 90.3 16.5 89.7 14.6 88.5 13.25 87.35 11.85 85.6 11.05 83.9 10.25 81.65 10.25 79.85 10.25 78.4 10.75 77 11.3 75.75 12.55
L 75.65 12.5 76.85 5.65 89.3 5.65 Z"/>
</g>
</defs>

<g transform="matrix( 0.9895477294921875, 0, 0, 0.9600067138671875, 0,0) ">
<g transform="matrix( 1, 0, 0, 1, 0,0) ">
<use xlink:href="#rebus_face_0_Layer0_0_FILL"/>
</g>
</g>
</svg>
