
<svg xmlns="http://www.w3.org/2000/svg" version="1.1" xmlns:xlink="http://www.w3.org/1999/xlink" preserveAspectRatio="none" x="0px" y="0px" width="100px" height="100px" viewBox="0 0 100 100">
<defs>
<g id="glove_rebus_0_Layer0_0_FILL">
<path fill="#999999" stroke="none" d="
M 32.85 16.8
L 24.3 16.8 24.3 21.6 24.1 21.6
Q 22.5 18.45 20 17.15 17.55 15.85 14.25 15.85 10.8 15.85 8.15 17.25 5.45 18.8 3.65 21.25 1.8 23.7 0.95 26.95 0 30.25 0 33.75 0 37.5 0.75 40.75 1.6 44.15 3.3 46.6 5.05 49.05 7.8 50.55 10.5 52 14.15 52 17.25 52 19.9 50.55 21.3 49.85 22.35 48.8 23.35 47.75 24.1 46.35
L 24.3 46.35 24.3 51.15
Q 24.3 53.05 23.85 54.65 23.45 56.3 22.6 57.45 21.75 58.75 20.25 59.35 18.85 60.05 16.9 60.05 14.45 60.05 12.65 59 10.8 57.8 10.05 55
L 1.05 55
Q 1.3 58.15 2.65 60.4 4.05 62.5 6.1 63.9 8.25 65.3 10.7 66 13.25 66.7 15.75 66.7 21.4 66.7 24.85 65.05 28.25 63.3 30.1 60.85 31.9 58.5 32.35 55.7 32.85 52.9 32.85 50.7
L 32.85 16.8
M 13.15 24.15
Q 14.55 23.35 16.5 23.35 18.75 23.35 20.25 24.15 21.75 25.1 22.6 26.6 23.45 28.25 23.85 30.25 24.3 32.2 24.3 34.45 24.3 36.45 23.75 38.2 23.35 39.95 22.35 41.35 21.4 42.75 19.9 43.7 18.4 44.5 16.5 44.5 14.35 44.5 12.95 43.45 11.55 42.5 10.7 41 9.85 39.45 9.4 37.5
L 9.1 33.65
Q 9.1 31.5 9.5 29.65 9.95 27.9 10.9 26.4 11.75 25 13.15 24.15 Z"/>

<path fill="#DF2745" stroke="none" d="
M 52.5 22.25
Q 60.7 19.6 65.15 10.15 67.1 2.9 60.2 0.05 56.05 -0.35 52.5 2.55 48.9 -0.35 44.8 0.05 37.9 2.9 39.85 10.15 44.3 19.6 52.5 22.25 Z"/>
</g>
</defs>

<g transform="matrix( 1.524383544921875, 0, 0, 1.4992523193359375, 0,0) ">
<g transform="matrix( 1, 0, 0, 1, 0,0) ">
<use xlink:href="#glove_rebus_0_Layer0_0_FILL"/>
</g>
</g>
</svg>
