
<svg xmlns="http://www.w3.org/2000/svg" version="1.1" xmlns:xlink="http://www.w3.org/1999/xlink" preserveAspectRatio="none" x="0px" y="0px" width="120px" height="110px" viewBox="0 0 120 110">
<defs>
<g id="Layer2_0_FILL">
<path fill="#000000" fill-opacity="0.14901960784313725" stroke="none" d="
M 24.45 91.45
Q 12.9 92.95 12.9 95 12.9 97.05 24.45 98.5 35.85 100 51.9 100 68.05 100 79.45 98.5 90.9 97.05 90.9 95 90.9 92.95 79.45 91.45 68.05 90 51.9 90 35.85 90 24.45 91.45 Z"/>
</g>

<g id="clock_0_Layer0_0_FILL">
<path fill="#FFCC00" stroke="none" d="
M 34.7 67.05
L 32.55 65.6 32.55 77.55 24.7 79.3 41.2 79.3 34.7 77.1 34.7 73.55 40.25 73.55 34.7 71.1 34.7 67.05
M 0 12.55
L 4.7 14.3 4.7 8.3 0 12.55
M 8.95 8.5
Q 8.45 8 7.75 8 7.7 8 7.65 8 8.15 8.05 8.5 8.45 9 8.9 9 9.5 9 10.1 8.5 10.55 8.1 11 7.5 11 6.9 11 6.4 10.55 6.05 10.15 6 9.65 6 9.7 6 9.75 6 10.45 6.5 10.95 7.05 11.5 7.75 11.5 8.45 11.5 8.95 10.95 9.5 10.45 9.5 9.75 9.5 9.05 8.95 8.5 Z"/>

<path fill="#F0F0F0" stroke="none" d="
M 12.05 7
L 10.75 11.3 12.7 15.1 8.75 17.05 7.5 20.05 4.75 19.35 4.7 39.3
Q 4.5 45.2 8.85 49.3
L 32.55 65.6 34.7 67.05 54.7 52.55 50.85 46.8 87.35 18.05
Q 77.25 4.25 64.7 5.05 43.15 6.4 40.1 25.05
L 28.6 25.05
Q 21.95 10.2 12.05 7
M 21.25 29.45
L 21.25 46.75
Q 21.3 51.75 24.25 53.6 25.25 54.2 26.55 54.45
L 35 54.45 26.55 54.45
Q 25.25 54.2 24.25 53.6 21.3 51.75 21.25 46.75
L 21.25 29.45 Z"/>

<path fill="#B03221" stroke="none" d="
M 10.75 11.3
L 12.05 7
Q 11.2 6.75 10.35 6.55 11.3 6.7 12.1 6.75 19.4 7.1 16.5 0.8 11.4 -0.85 6.25 0.85 2.4 4.15 4.7 8.3
L 4.7 14.3 2.75 18.85 4.75 19.35 7.5 20.05 8.75 17.05 12.7 15.1 10.75 11.3
M 7.75 8
Q 8.45 8 8.95 8.5 9.5 9.05 9.5 9.75 9.5 10.45 8.95 10.95 8.45 11.5 7.75 11.5 7.05 11.5 6.5 10.95 6 10.45 6 9.75 6 9.7 6 9.65 6 9.55 6 9.5 6 8.9 6.4 8.45 6.9 8 7.5 8 7.55 8 7.65 8 7.7 8 7.75 8 Z"/>

<path fill="#FF8F4B" stroke="none" d="
M 8.5 8.45
Q 8.15 8.05 7.65 8 7.55 8 7.5 8 6.9 8 6.4 8.45 6 8.9 6 9.5 6 9.55 6 9.65 6.05 10.15 6.4 10.55 6.9 11 7.5 11 8.1 11 8.5 10.55 9 10.1 9 9.5 9 8.9 8.5 8.45 Z"/>
</g>

<path id="clock_0_Layer0_0_1_STROKES" stroke="#433B8B" stroke-width="2" stroke-linejoin="round" stroke-linecap="round" fill="none" d="
M 21.25 29.45
L 21.25 46.75
Q 21.3 51.75 24.25 53.6 25.25 54.2 26.55 54.45
L 35 54.45"/>
</defs>

<g transform="matrix( 1, 0, 0, 1, 0,0) ">
<use xlink:href="#Layer2_0_FILL"/>
</g>

<g transform="matrix( 1.1243133544921875, 0, 0, 1.1352386474609375, 10.9,3) ">
<g transform="matrix( 1, 0, 0, 1, 0,0) ">
<use xlink:href="#clock_0_Layer0_0_FILL"/>

<use xlink:href="#clock_0_Layer0_0_1_STROKES"/>
</g>
</g>
</svg>
