
<svg xmlns="http://www.w3.org/2000/svg" version="1.1" xmlns:xlink="http://www.w3.org/1999/xlink" preserveAspectRatio="none" x="0px" y="0px" width="1200px" height="200px" viewBox="0 0 1200 200">
<defs>
<linearGradient id="Gradient_1" gradientUnits="userSpaceOnUse" x1="599.95" y1="200" x2="599.95" y2="40" spreadMethod="pad">
<stop  offset="0%" stop-color="#2832A2"/>

<stop  offset="100%" stop-color="#282071"/>
</linearGradient>

<g id="Layer0_0_FILL">
<path fill="#281757" stroke="none" d="
M 1150 109.45
L 1200 106.5 1200 66.65 1150 109.45
M 950 121.05
L 970 108.95 970 40.75 890 76.6 950 121.05
M 1149.95 109.45
L 1150 109.45 1110 36.75 1040 66.65 1149.95 109.45 Z"/>

<path fill="#FFFFFF" stroke="none" d="
M 1150 109.45
L 1149.95 109.45 1040 115.8 950 121.05 879.95 125.15 760 132.1 690.05 136.15 500.05 147.2 0 176.25 0 200 1200 200 1200 106.5 1150 109.45 Z"/>

<path fill="url(#Gradient_1)" stroke="none" d="
M 1200 66.65
L 1200 0 0 0 0 176.25 500.05 147.2 645 106.9 790 66.65 900 46.75 970 40.75 1040 66.65 1110 36.75 1200 66.65 Z"/>

<path fill="#291556" stroke="none" d="
M 1150 109.45
L 1200 66.65 1110 36.75 1150 109.45
M 645 106.9
L 500.05 147.2 690.05 136.15 645 106.9
M 690.05 136.15
L 760 132.1 790 66.65 690.05 136.15
M 879.95 125.15
L 820 96.55 760 132.1 879.95 125.15
M 1040 115.8
L 1040 66.65 970 108.95 950 121.05 1040 115.8
M 890 76.6
L 900 46.75 790 66.65 890 76.6 Z"/>

<path fill="#433B8B" stroke="none" d="
M 690.05 136.15
L 790 66.65 645 106.9 690.05 136.15
M 820 96.55
L 890 76.6 790 66.65 760 132.1 820 96.55
M 1040 66.65
L 1040 115.8 1149.95 109.45 1040 66.65
M 970 40.75
L 970 108.95 1040 66.65 970 40.75
M 970 40.75
L 900 46.75 890 76.6 970 40.75 Z"/>

<path fill="#432C96" stroke="none" d="
M 890 76.6
L 820 96.55 879.95 125.15 950 121.05 890 76.6 Z"/>
</g>
</defs>

<g transform="matrix( 1, 0, 0, 1, 0,0) ">
<use xlink:href="#Layer0_0_FILL"/>
</g>
</svg>
