
<svg xmlns="http://www.w3.org/2000/svg" version="1.1" xmlns:xlink="http://www.w3.org/1999/xlink" preserveAspectRatio="none" x="0px" y="0px" width="1200px" height="150px" viewBox="0 0 1200 150">
<defs>
<g id="Layer0_0_FILL">
<path fill="#281757" stroke="none" d="
M 1150 83.2
L 1200 80.25 1200 40.4 1150 83.2
M 950 94.8
L 970 82.7 970 14.5 890 50.35 950 94.8
M 1149.95 83.2
L 1150 83.2 1110 10.5 1040 40.4 1149.95 83.2 Z"/>

<path fill="#FFFFFF" stroke="none" d="
M 1150 83.2
L 1149.95 83.2 1040 89.55 950 94.8 879.95 98.9 760 105.85 690.05 109.9 500.05 120.95 0 150 1200 150 1200 80.25 1150 83.2 Z"/>

<path fill="#282071" stroke="none" d="
M 1200 40.4
L 1200 0 0 0 0 150 500.05 120.95 645 80.65 790 40.4 900 20.5 970 14.5 1040 40.4 1110 10.5 1200 40.4 Z"/>

<path fill="#291556" stroke="none" d="
M 645 80.65
L 500.05 120.95 690.05 109.9 645 80.65
M 690.05 109.9
L 760 105.85 790 40.4 690.05 109.9
M 879.95 98.9
L 820 70.3 760 105.85 879.95 98.9
M 1040 89.55
L 1040 40.4 970 82.7 950 94.8 1040 89.55
M 1150 83.2
L 1200 40.4 1110 10.5 1150 83.2
M 890 50.35
L 900 20.5 790 40.4 890 50.35 Z"/>

<path fill="#433B8B" stroke="none" d="
M 690.05 109.9
L 790 40.4 645 80.65 690.05 109.9
M 820 70.3
L 890 50.35 790 40.4 760 105.85 820 70.3
M 1040 40.4
L 1040 89.55 1149.95 83.2 1040 40.4
M 970 14.5
L 900 20.5 890 50.35 970 14.5
M 970 14.5
L 970 82.7 1040 40.4 970 14.5 Z"/>

<path fill="#432C96" stroke="none" d="
M 820 70.3
L 879.95 98.9 950 94.8 890 50.35 820 70.3 Z"/>
</g>
</defs>

<g transform="matrix( 1, 0, 0, 1, 0,0) ">
<use xlink:href="#Layer0_0_FILL"/>
</g>
</svg>
