
<svg xmlns="http://www.w3.org/2000/svg" version="1.1" xmlns:xlink="http://www.w3.org/1999/xlink" preserveAspectRatio="none" x="0px" y="0px" width="1200px" height="200px" viewBox="0 0 1200 200">
<defs>
<g id="Layer0_0_FILL">
<path fill="#FFFFFF" stroke="none" d="
M 1070 136.55
L 1070 136.6 930 144.7 930 144.75 0 198.75 0 200 1200 200 1200 129 1070 136.55 Z"/>

<path fill="#291556" stroke="none" d="
M 793.3 129.15
L 687.1 158.7 826.3 150.6 793.3 129.15
M 965.45 142.55
L 921.55 121.6 877.55 147.65 965.45 142.55
M 826.3 150.6
L 877.55 147.65 899.55 99.7 826.3 150.6
M 972.85 106.95
L 980.15 85.1 899.55 99.7 972.85 106.95
M 1031.45 130.65
L 1016.8 139.55 1082.75 135.7 1082.75 99.7 1031.45 130.65
M 1142.4 96
L 1142.4 92.95 1139.95 88.45 1139.9 88.4 1112.65 96 1142.4 96 Z"/>

<path fill="#433B8B" stroke="none" d="
M 877.55 147.65
L 921.55 121.6 972.85 106.95 899.55 99.7 877.55 147.65
M 826.3 150.6
L 899.55 99.7 793.3 129.15 826.3 150.6
M 1031.45 130.65
L 1082.75 99.7 1031.45 80.7 1031.45 130.65
M 1082.75 99.7
L 1082.75 135.7 1163.3 131.05 1082.75 99.7
M 1031.45 80.7
L 980.15 85.1 972.85 106.95 1031.45 80.7
M 1134.05 77.75
L 1139.9 88.4 1139.95 88.45 1142.4 92.95 1163.35 131.05 1200 99.7 1134.05 77.75 Z"/>

<path fill="#432C96" stroke="none" d="
M 1016.8 139.55
L 972.85 106.95 921.55 121.6 965.45 142.55 1016.8 139.55 Z"/>

<path fill="#281757" stroke="none" d="
M 1016.8 139.55
L 1031.45 130.65 1031.45 80.7 972.85 106.95 1016.8 139.55
M 1200 128.9
L 1200 99.7 1163.35 131.05 1200 128.9
M 1139.9 88.4
L 1134.05 77.75 1082.75 99.7 1163.3 131.05 1163.35 131.05 1142.4 92.95 1142.4 96 1112.65 96 1139.9 88.4 Z"/>
</g>
</defs>

<g transform="matrix( 1, 0, 0, 1, 0,0) ">
<use xlink:href="#Layer0_0_FILL"/>
</g>
</svg>
