
<svg xmlns="http://www.w3.org/2000/svg" version="1.1" xmlns:xlink="http://www.w3.org/1999/xlink" preserveAspectRatio="none" x="0px" y="0px" width="1200px" height="200px" viewBox="0 0 1200 200">
<defs>
<linearGradient id="Gradient_1" gradientUnits="userSpaceOnUse" x1="599.95" y1="222.5" x2="599.95" y2="62.5" spreadMethod="pad">
<stop  offset="0%" stop-color="#524EB7"/>

<stop  offset="100%" stop-color="#282071"/>
</linearGradient>

<g id="Layer1_0_FILL">
<path fill="url(#Gradient_1)" stroke="none" d="
M 546.95 123.95
L 546.95 0 142.95 0 143 123.95 546.95 123.95
M 1200 200
L 1200 0 546.95 0 546.95 123.95 143 123.95 142.95 0 0 0 0 200 1200 200 Z"/>
</g>

<g id="Layer0_0_FILL">
<path fill="#FFFFFF" fill-opacity="0.4" stroke="none" d="
M 642 171.85
L 644 171.85 644 169.85 642 169.85 642 171.85
M 611 173.15
L 613 173.15 613 171.15 611 171.15 611 173.15
M 571 138.15
L 571 141.15 573 141.15 573 138.15 571 138.15
M 621.1 106.5
L 623.1 106.5 623.1 104.5 621.1 104.5 621.1 106.5
M 571 85.35
L 572.1 85.35 572.1 83.35 571 83.35 571 85.35
M 730.1 157.5
L 732.1 157.5 732.1 155.5 730.1 155.5 730.1 157.5
M 670 159.25
L 670 162.25 672.9 162.25 672.9 159.25 670 159.25
M 710 111.7
L 712 111.7 712 109.7 710 109.7 710 111.7
M 720.1 98.55
L 722.1 98.55 722.1 97.95 720.1 97.95 720.1 98.55
M 30.1 106.5
L 32.1 106.5 32.1 104.5 30.1 104.5 30.1 106.5
M 33 48.7
L 30 48.7 30 51.7 33 51.7 33 48.7
M 180.1 91.3
L 180.1 91.9 182.1 91.9 182.1 91.3 180.1 91.3
M 170 78.15
L 170 80.15 172 80.15 172 78.15 170 78.15
M 190.1 32.35
L 190.1 34.35 192.1 34.35 192.1 32.35 190.1 32.35
M 73 18.7
L 73 16.7 71 16.7 71 18.7 73 18.7
M 81.1 83.35
L 81.1 85.35 83.1 85.35 83.1 83.35 81.1 83.35
M 102 18
L 102 20 104 20 104 18 102 18
M 132.9 27.6
L 130 27.6 130 30.6 132.9 30.6 132.9 27.6
M 1067.2 157.1
L 1064.2 157.1 1064.2 160.1 1067.2 160.1 1067.2 157.1
M 1070.9 140.55
L 1068.9 140.55 1068.9 142.55 1070.9 142.55 1070.9 140.55
M 450 70
L 450 72 452 72 452 70 450 70
M 456.7 89.55
L 456.7 86.55 453.7 86.55 453.7 89.55 456.7 89.55
M 440 128.95
L 440 130.95 442 130.95 442 128.95 440 128.95
M 471.5 148.4
L 471.5 145.4 468.5 145.4 468.5 148.4 471.5 148.4
M 767.1 85.35
L 767.1 87.35 769.1 87.35 769.1 85.35 767.1 85.35
M 731.45 66.05
L 729.45 66.05 729.45 68.05 731.45 68.05 731.45 66.05
M 752 67.65
L 750 67.65 750 69.65 752 69.65 752 67.65
M 1031.45 70.4
L 1031.45 68.4 1029.45 68.4 1029.45 70.4 1031.45 70.4
M 1029.45 28.9
L 1029.45 30.9 1031.45 30.9 1031.45 28.9 1029.45 28.9
M 1070.9 44.4
L 1070.9 41.4 1067.9 41.4 1067.9 44.4 1070.9 44.4 Z"/>

<path fill="#FFFFFF" stroke="none" d="
M 761 132.85
L 763 132.85 763 130.85 761 130.85 761 132.85
M 776.7 135.85
L 779.7 135.85 779.7 132.85 776.7 132.85 776.7 135.85
M 221 57
L 221 59 223 59 223 57 221 57
M 236.7 54
L 236.7 57 239.7 57 239.7 54 236.7 54
M 872.9 148.3
L 870.9 148.3 870.9 150.3 872.9 150.3 872.9 148.3
M 877.15 118.35
L 879.15 118.35 879.15 116.95 877.15 116.95 877.15 118.35
M 1067.2 106.4
L 1065.2 106.4 1065.2 108.4 1067.2 108.4 1067.2 106.4
M 455.7 37.85
L 455.7 35.85 453.7 35.85 453.7 37.85 455.7 37.85
M 643.75 47.8
L 643.75 46.4 641.75 46.4 641.75 47.8 643.75 47.8
M 650 79.75
L 650 77.75 648 77.75 648 79.75 650 79.75
M 269.1 91.9
L 269.1 93.9 271.1 93.9 271.1 91.9 269.1 91.9
M 330 110.3
L 330 112.3 332 112.3 332 110.3 330 110.3
M 396.7 48.15
L 394.7 48.15 394.7 50.15 396.7 50.15 396.7 48.15
M 110 137.55
L 110 139.55 112 139.55 112 137.55 110 137.55
M 142.1 125.15
L 142.1 123.75 140.1 123.75 140.1 125.15 142.1 125.15
M 59 158.7
L 59 160.7 61 160.7 61 158.7 59 158.7
M 10.1 132.05
L 10.1 134.05 12.1 134.05 12.1 132.05 10.1 132.05
M 80.1 134.05
L 80.1 137.05 83.1 137.05 83.1 134.05 80.1 134.05
M 259 159
L 259 161 261 161 261 159 259 159
M 310 137.85
L 310 139.85 312 139.85 312 137.85 310 137.85
M 183 139.55
L 182.7 142.55 183 142.55 183 139.55
M 240 128.65
L 240 130.65 242 130.65 242 128.65 240 128.65
M 380 139.85
L 380 142.85 383 142.85 383 139.85 380 139.85
M 558.7 148.4
L 556.7 148.4 556.7 150.4 558.7 150.4 558.7 148.4
M 798 110
L 798 112 800 112 800 110 798 110
M 721 128.45
L 721 126.45 719 126.45 719 128.45 721 128.45
M 690 78.55
L 690 81.55 693 81.55 693 78.55 690 78.55
M 657.5 6.5
L 657.5 8.5 659.5 8.5 659.5 6.5 657.5 6.5
M 813.7 107
L 813.7 110 816.7 110 816.7 107 813.7 107
M 831.45 76.15
L 831.45 78.15 833.45 78.15 833.45 76.15 831.45 76.15
M 841.45 49.4
L 841.45 47.4 839.45 47.4 839.45 49.4 841.45 49.4
M 811.7 38
L 811.7 40 813.7 40 813.7 38 811.7 38
M 916.3 49.4
L 916.3 47.4 914.3 47.4 914.3 49.4 916.3 49.4
M 947.3 48.7
L 945.3 48.7 945.3 50.7 947.3 50.7 947.3 48.7
M 976.3 61.3
L 976.3 58.3 973.3 58.3 973.3 61.3 976.3 61.3
M 1097.3 79.45
L 1097.3 77.45 1095.3 77.45 1095.3 79.45 1097.3 79.45
M 1110.9 40.6
L 1110.9 42.6 1112.9 42.6 1112.9 40.6 1110.9 40.6
M 1120.9 13.85
L 1120.9 11.85 1118.9 11.85 1118.9 13.85 1120.9 13.85
M 1191.9 62.55
L 1191.9 60.55 1189.9 60.55 1189.9 62.55 1191.9 62.55
M 1160.9 70.15
L 1160.9 73.15 1163.9 73.15 1163.9 70.15 1160.9 70.15 Z"/>

<path fill="#FFFFFF" fill-opacity="0.4980392156862745" stroke="none" d="
M 960.25 151.9
L 958.25 151.9 958.25 153.9 960.25 153.9 960.25 151.9
M 949.9 168.25
L 949.9 170.25 951.9 170.25 951.9 168.25 949.9 168.25
M 923.9 177.85
L 920.9 177.85 920.9 179.5 923.9 179.5 923.9 177.85
M 909.25 130.75
L 907.25 130.75 907.25 132.75 909.25 132.75 909.25 130.75
M 939.15 127.25
L 936.15 127.25 936.15 130.25 939.15 130.25 939.15 127.25
M 982.9 166.95
L 980.9 166.95 980.9 168.95 982.9 168.95 982.9 166.95
M 1009.15 125.25
L 1007.15 125.25 1007.15 127.25 1009.15 127.25 1009.15 125.25
M 1000.9 110.55
L 997.9 110.55 997.9 113.55 1000.9 113.55 1000.9 110.55
M 989.15 97.7
L 987.15 97.7 987.15 99.7 989.15 99.7 989.15 97.7
M 597 107.3
L 597 110.3 600 110.3 600 107.3 597 107.3
M 540 98.4
L 540 96.4 538 96.4 538 98.4 540 98.4
M 511.75 54.7
L 511.75 56.7 513.75 56.7 513.75 54.7 511.75 54.7
M 520 40
L 520 43 523 43 523 40 520 40
M 531.75 27.15
L 531.75 29.15 533.75 29.15 533.75 27.15 531.75 27.15
M 560.65 81.35
L 560.65 83.35 562.65 83.35 562.65 81.35 560.65 81.35
M 611.65 60.2
L 611.65 62.2 613.65 62.2 613.65 60.2 611.65 60.2
M 571 97.7
L 569 97.7 569 99.7 571 99.7 571 97.7
M 581.75 56.7
L 581.75 59.7 584.75 59.7 584.75 56.7 581.75 56.7
M 589.6 123.75
L 587.6 123.75 587.6 125.75 589.6 125.75 589.6 123.75 Z"/>

<path fill="#FFFFFF" fill-opacity="0.8" stroke="none" d="
M 315.1 60.75
L 315.1 58.75 313.1 58.75 313.1 60.75 315.1 60.75
M 273 20.15
L 273 17.15 270 17.15 270 20.15 273 20.15
M 267.7 46.4
L 267.7 44.4 265.7 44.4 265.7 46.4 267.7 46.4
M 346 61.65
L 346 63.65 348 63.65 348 61.65 346 61.65
M 331.7 10.6
L 331.7 12.6 333.7 12.6 333.7 10.6 331.7 10.6
M 366.7 38.7
L 366.7 36.7 364.7 36.7 364.7 38.7 366.7 38.7 Z"/>
</g>
</defs>

<g transform="matrix( 1, 0, 0, 1, 0,0) ">
<use xlink:href="#Layer1_0_FILL"/>
</g>

<g transform="matrix( 1, 0, 0, 1, 0,0) ">
<use xlink:href="#Layer0_0_FILL"/>
</g>
</svg>
