
<svg xmlns="http://www.w3.org/2000/svg" version="1.1" xmlns:xlink="http://www.w3.org/1999/xlink" preserveAspectRatio="none" x="0px" y="0px" width="305px" height="100px" viewBox="0 0 305 100">
<defs>
<filter id="Filter_1" x="-20%" y="-20%" width="140%" height="140%" color-interpolation-filters="sRGB">
<feFlood flood-color="#000000" flood-opacity="1" in="SourceGraphic" result="result1"/>

<feComposite in2="SourceGraphic" in="result1" operator="in" result="result2"/>

<feGaussianBlur in="result2" stdDeviation="1.3333333333333333,1.3333333333333333" result="result3"/>

<feOffset dx="2.4492935982947064e-16" dy="4" in="result3" result="result4"/>

<feComposite in2="result4" in="SourceGraphic" operator="over" result="result5"/>
</filter>

<g id="saturno_0_Layer0_0_FILL">
<path fill="#FFCA69" stroke="none" d="
M 264.5 130
Q 251.8 134.8 255.25 143 258.75 149.35 252.25 153 240.75 157.05 245 165.5 248.05 171.45 258.6 166 270.7 159.3 273.95 163 297.8 136.45 298.6 100.45 266.75 113.85 228.65 126 232.95 130.85 244 126
L 258.6 119.75
Q 264.4 118.4 265.95 123 267.95 128.9 264.5 130
M 270.4 29.2
Q 270.15 28.95 269.9 28.7 241.15 0 200.6 0 199.6 0 198.6 0.05 200.6 3.7 198.6 5.95
L 198.6 30.25
Q 199.85 33.4 198.6 35.55
L 198.6 54.8 223 43
Q 231.3 40.6 233.75 46 235.5 50.45 228.6 53 212.8 58.9 218.6 66.75 221.2 72.25 215 75.75
L 198.6 83
Q 194.1 88 198.6 93 203.55 99.1 213.75 93
L 224.75 88
Q 231.2 84.6 234.75 88 240.15 97.25 251.5 90.5 259.55 86.6 264.85 91.05 282.05 84.5 296.7 77.9 293.6 62.05 285.35 48.3 282.95 44.35 280.2 40.6 275.8 34.7 270.4 29.2 Z"/>

<path fill="#FDC841" stroke="none" d="
M 198.6 196
L 198.6 135.15
Q 156.45 147.3 120.2 154.25 125.05 161.05 131.3 167.3 159.3 195.3 198.6 196
M 195.75 7.75
Q 197.65 7 198.6 5.95
L 198.6 0.05
Q 159.3 0.7 131.3 28.7 109.55 50.5 104.3 79.1 102.9 86.45 102.65 94.3 102.6 96.1 102.6 98 102.6 101.35 102.8 104.65 103.8 120.95 109.65 135.25 148.6 128.45 198.6 113.35
L 198.6 93
Q 194.1 88 198.6 83
L 198.6 54.8 184.45 61.65
Q 178.15 64.75 173.1 57.8 168.05 50.9 176 46.5
L 193.75 38.75
Q 197.4 37.65 198.6 35.55
L 198.6 30.25
Q 195.55 24.1 188.6 26.75
L 181.25 30.25
Q 172.7 34.3 168.6 27.75 166.7 21.55 173.25 17.25
L 195.75 7.75 Z"/>

<path fill="#9C9363" stroke="none" d="
M 208.1 120
Q 208.35 119.9 208.6 119.85
L 208.6 110.3 208.55 110.3
Q 203.5 111.85 198.6 113.35 148.6 128.45 109.65 135.25 107.85 135.55 106.05 135.85 62.1 143.2 58.35 135.35 57.65 134 58.35 132.2 58.7 131.4 59.35 130.45 64.8 122.65 93.15 109.1 97.85 106.9 102.8 104.65 102.6 101.35 102.6 98 102.6 96.1 102.65 94.3 89.85 99.85 78.5 105.6 45.5 122.3 38.7 133.15 36.2 137.1 37.15 140.25 37.25 140.65 37.45 141 42.35 151.95 90.75 146.2 101.6 144.9 113.2 142.95 151.55 136.5 198.6 122.85 203.3 121.45 208.1 120 Z"/>

<path fill="#C9C4AA" stroke="none" d="
M 205.7 133.05
Q 207.15 132.6 208.6 132.2
L 208.6 119.85
Q 208.35 119.9 208.1 120 203.3 121.45 198.6 122.85 151.55 136.5 113.2 142.95 101.6 144.9 90.75 146.2 42.35 151.95 37.45 141 37.25 140.65 37.15 140.25 36.2 137.1 38.7 133.15 45.5 122.3 78.5 105.6 89.85 99.85 102.65 94.3 102.9 86.45 104.3 79.1 76.05 90.55 52.5 103 -3.1 132.4 0.2 149.8 0.95 153.8 4.8 156.65 17.35 166 63.55 162.2 89.8 160.05 120.2 154.25 156.45 147.3 198.6 135.15 202.15 134.1 205.7 133.05 Z"/>

<path fill="#FAB127" stroke="none" d="
M 208.6 132.2
Q 207.15 132.6 205.7 133.05 202.15 134.1 198.6 135.15
L 198.6 196
Q 199.6 196 200.6 196 241.15 196 269.9 167.3 272 165.2 273.95 163 270.7 159.3 258.6 166 248.05 171.45 245 165.5 240.75 157.05 252.25 153 258.75 149.35 255.25 143 251.8 134.8 264.5 130 267.95 128.9 265.95 123 264.4 118.4 258.6 119.75
L 244 126
Q 232.95 130.85 228.65 126 218.85 129.15 208.6 132.2
M 198.6 35.55
Q 199.85 33.4 198.6 30.25
L 198.6 35.55
M 198.6 5.95
Q 200.6 3.7 198.6 0.05
L 198.6 5.95
M 233.75 46
Q 231.3 40.6 223 43
L 198.6 54.8 198.6 83 215 75.75
Q 221.2 72.25 218.6 66.75 212.8 58.9 228.6 53 235.5 50.45 233.75 46
M 264.85 91.05
Q 259.55 86.6 251.5 90.5 240.15 97.25 234.75 88 231.2 84.6 224.75 88
L 213.75 93
Q 203.55 99.1 198.6 93
L 198.6 113.35
Q 203.5 111.85 208.55 110.3
L 208.6 110.3
Q 239.5 100.7 264.85 91.05 Z"/>

<path fill="#FFDD8C" stroke="none" d="
M 198.6 35.55
Q 197.4 37.65 193.75 38.75
L 176 46.5
Q 168.05 50.9 173.1 57.8 178.15 64.75 184.45 61.65
L 198.6 54.8 198.6 35.55
M 198.6 5.95
Q 197.65 7 195.75 7.75
L 173.25 17.25
Q 166.7 21.55 168.6 27.75 172.7 34.3 181.25 30.25
L 188.6 26.75
Q 195.55 24.1 198.6 30.25
L 198.6 5.95 Z"/>

<path fill="#7C7144" stroke="none" d="
M 340.4 47.05
Q 340.5 47.3 340.65 47.55 344.45 55.35 305.7 73.75 301.35 75.85 296.7 77.9 282.05 84.5 264.85 91.05 239.5 100.7 208.6 110.3
L 208.6 119.85
Q 259.85 104.4 298.1 87.5 309.8 82.35 320.25 77.05 357.25 58.4 361.5 47.05 362.4 44.55 361.75 42.4 360.9 39.65 357.6 37.85 346.5 31.9 308 36.45 294.7 38 280.2 40.6 282.95 44.35 285.35 48.3 289.1 47.6 292.8 47 326.6 41.4 336.75 44.7 339.35 45.55 340.4 47.05 Z"/>

<path fill="#B6AC8D" stroke="none" d="
M 393.2 42.8
Q 396.5 37.3 395.6 32.7 392.35 15.35 332.05 20.25 303.65 22.55 270.4 29.2 275.8 34.7 280.2 40.6 294.7 38 308 36.45 346.5 31.9 357.6 37.85 360.9 39.65 361.75 42.4 362.4 44.55 361.5 47.05 357.25 58.4 320.25 77.05 309.8 82.35 298.1 87.5 259.85 104.4 208.6 119.85
L 208.6 132.2
Q 218.85 129.15 228.65 126 266.75 113.85 298.6 100.45 322.65 90.3 343.15 79.45 384.05 57.9 393.2 42.8 Z"/>
</g>

<g id="tierra_0_Layer0_0_FILL">
<path fill="#588FD7" stroke="none" d="
M 119.5 74.3
Q 119.25 74.4 119 74.55
L 115.25 76.35
Q 112.45 77.7 110.3 79.8 107.75 82.4 107.75 86 107.75 89.6 110.3 92.15 112.9 94.75 116.5 94.75 117.65 94.75 118.65 94.5 120.05 94.15 121.3 93.35
L 122.95 92.65
Q 128.4 91.2 132.5 95.6
L 132.5 47 126.7 50.1
Q 117.85 56.15 122.5 65.1 124.55 71.65 119.5 74.3
M 127.95 28.6
Q 130.5 27.7 132.5 27.7
L 132.5 0.05
Q 116.85 0.25 102.5 3.65 109.75 10.75 102.5 17.85
L 77.1 30.1
Q 72.15 36.35 77.1 42.6 83.3 48.8 95.2 42.6
L 127.95 28.6 Z"/>

<path fill="#8CC1F5" stroke="none" d="
M 132.5 27.7
Q 130.5 27.7 127.95 28.6
L 95.2 42.6
Q 83.3 48.8 77.1 42.6 72.15 36.35 77.1 30.1
L 102.5 17.85
Q 109.75 10.75 102.5 3.65 67.05 12 39.5 39.55 0 79.1 0 135 0 190.95 39.5 230.45 78.15 269.1 132.5 270
L 132.5 95.6
Q 128.4 91.2 122.95 92.65
L 121.3 93.35
Q 120.05 94.15 118.65 94.5 117.65 94.75 116.5 94.75 112.9 94.75 110.3 92.15 107.75 89.6 107.75 86 107.75 82.4 110.3 79.8 112.45 77.7 115.25 76.35
L 119 74.55
Q 119.25 74.4 119.5 74.3 124.55 71.65 122.5 65.1 117.85 56.15 126.7 50.1
L 132.5 47 132.5 27.7 Z"/>

<path fill="#6EA7F1" stroke="none" d="
M 132.5 47
L 135.95 45.1
Q 142.45 42.35 139.95 35.1 138.35 27.7 132.5 27.7
L 132.5 47
M 182.5 95.1
Q 179.7 90.4 173.45 92.7
L 148 105.1
Q 136.85 106.55 135.45 99.85 134.1 97.3 132.5 95.6
L 132.5 270
Q 133.75 270 135 270 155.9 270 174.55 264.45 191.2 259.5 206.05 250.1 211.45 243.85 206.05 237.6 199.3 231.55 192.5 235.1 183.85 237.4 179.95 229.35 175.75 221.25 187.2 215.1
L 212.5 205.1
Q 219.75 199.3 215.45 191.6 213.65 182.8 222.5 178.85 234.75 174.25 232.5 165.1 226.1 152.6 215.7 159.85
L 192.5 171.6
Q 185.25 176.45 177.95 171.6
L 172.5 165.1
Q 165.85 159.35 155.7 165.1 147.7 170.5 142.5 161.5 137.7 153.2 147.95 148.1
L 169.95 138.6
Q 179.3 132.75 172.5 125.1 168.9 115.1 177.95 112.35 188.8 105.45 182.5 95.1 Z"/>

<path fill="#3B6ACA" stroke="none" d="
M 232.7 41.85
Q 231.6 40.7 230.45 39.55 223.25 32.35 215.5 26.45 196.85 12.25 175.05 5.7 157.75 0.45 138.45 0.05 136.75 0 135 0 133.75 0 132.5 0.05
L 132.5 27.7
Q 138.35 27.7 139.95 35.1 142.45 42.35 135.95 45.1
L 132.5 47 132.5 95.6
Q 134.1 97.3 135.45 99.85 136.85 106.55 148 105.1
L 173.45 92.7
Q 179.7 90.4 182.5 95.1 188.8 105.45 177.95 112.35 168.9 115.1 172.5 125.1 179.3 132.75 169.95 138.6
L 147.95 148.1
Q 137.7 153.2 142.5 161.5 147.7 170.5 155.7 165.1 165.85 159.35 172.5 165.1
L 177.95 171.6
Q 185.25 176.45 192.5 171.6
L 215.7 159.85
Q 226.1 152.6 232.5 165.1 234.75 174.25 222.5 178.85 213.65 182.8 215.45 191.6 219.75 199.3 212.5 205.1
L 187.2 215.1
Q 175.75 221.25 179.95 229.35 183.85 237.4 192.5 235.1 199.3 231.55 206.05 237.6 211.45 243.85 206.05 250.1 218.95 241.95 230.45 230.45 241.9 219 250.1 206.15 270 174.7 270 135 270 90.7 245.2 56.7 239.55 49 232.7 41.85 Z"/>
</g>

<g id="urano_0_Layer0_0_FILL">
<path fill="#3CBDE4" stroke="none" d="
M 151.5 132
Q 150.75 132 150 132 104.7 132 69.1 125.8 75.65 140.95 88.35 153.65 114.5 179.8 151.5 180
L 151.5 132
M 137.35 10
Q 139.45 0.8 124.75 3.95 104.5 10.2 88.35 26.35 73.9 40.8 67.4 58.55 64.95 65.15 63.6 72.3 62 80.8 62 90 62 100.55 64.15 110.25 67.4 111.25 71.05 112.25 96.45 119.05 130 120.55 128.75 114.3 140 110
L 147.15 106.7
Q 152.1 105.1 150 100 146.2 95.25 151.5 92.05
L 151.5 41.6
Q 150.75 40.9 150 40 143.8 35.35 136.65 40
L 126.9 45.95
Q 115.7 53.4 110 46.45 107.45 39.3 112.9 37.45
L 120 34.45
Q 124.4 29.9 122.15 23.85 120.05 18.1 130 15.7 136.35 14.3 137.35 10 Z"/>

<path fill="#60D5F9" stroke="none" d="
M 150 100
Q 152.1 105.1 147.15 106.7
L 140 110
Q 128.75 114.3 130 120.55 139.65 121 150 121
L 151.5 120.45 151.5 92.05
Q 146.2 95.25 150 100
M 124.75 3.95
Q 139.45 0.8 137.35 10 136.35 14.3 130 15.7 120.05 18.1 122.15 23.85 124.4 29.9 120 34.45
L 112.9 37.45
Q 107.45 39.3 110 46.45 115.7 53.4 126.9 45.95
L 136.65 40
Q 143.8 35.35 150 40 150.75 40.9 151.5 41.6
L 151.5 0
Q 137.35 0.05 124.75 3.95 Z"/>

<path fill="#A2D8E9" stroke="none" d="
M 71.05 112.25
Q 67.4 111.25 64.15 110.25 65.9 118.3 69.1 125.8 104.7 132 150 132 150.75 132 151.5 132
L 151.5 121
Q 150.85 121 150.15 121 150.1 121 150 121 139.65 121 130 120.55 96.45 119.05 71.05 112.25 Z"/>

<path fill="#D3E6E8" stroke="none" d="
M 63.6 72.3
Q 64.95 65.15 67.4 58.55 55.05 60.75 43.9 63.7 0 75.45 0 92 0 108.55 43.9 120.25 55.85 123.45 69.1 125.8 65.9 118.3 64.15 110.25 38.3 102.15 38.3 91.2 38.3 80.35 63.6 72.3 Z"/>

<path fill="#9ED0DF" stroke="none" d="
M 190 130.65
Q 198.25 127.65 190 119.15 183.35 119.8 176.3 120.25 164.45 120.95 151.5 121
L 151.5 132
Q 171.7 131.95 190 130.65 Z"/>

<path fill="#23A1D5" stroke="none" d="
M 176.3 120.25
Q 177.9 111.05 170 113.2
L 151.5 120.45 151.5 121
Q 164.45 120.95 176.3 120.25
M 219.35 145.75
Q 221 143.25 220 140 217.1 135 212.7 135.2 210.05 135.25 206.9 137.2
L 170 153.95
Q 162.4 159.65 157.4 153.95 156.8 152.05 156.85 150.45 156.95 145.6 162.9 143.45
L 190 130.65
Q 171.7 131.95 151.5 132
L 151.5 180
Q 151.75 180 152 180 179.6 180 201.2 165.6 196.35 157.55 204.4 154.45
L 213.4 150
Q 217.7 148.25 219.35 145.75
M 180 43.2
Q 175.4 34.9 163.4 43.2 157.45 47.3 151.5 41.6
L 151.5 92.05
Q 151.8 91.85 152.15 91.7 153.5 90.8 155.15 90
L 185.15 74.45
Q 193.85 72 190 64.7 186.3 58.05 176.4 64.7 170.05 68.9 164.65 64.7 159.4 57.7 170 53.7 180.85 49.9 180 43.2 Z"/>

<path fill="#40C3F4" stroke="none" d="
M 221.35 147.45
Q 230.2 137 235.25 125 224.05 127.1 211.9 128.6 201.3 129.85 190 130.65
L 162.9 143.45
Q 156.95 145.6 156.85 150.45 156.8 152.05 157.4 153.95 162.4 159.65 170 153.95
L 206.9 137.2
Q 210.05 135.25 212.7 135.2 217.1 135 220 140 221 143.25 219.35 145.75 217.7 148.25 213.4 150
L 204.4 154.45
Q 196.35 157.55 201.2 165.6 208.8 160.5 215.65 153.65 218.7 150.6 221.35 147.45
M 163.4 43.2
Q 175.4 34.9 180 43.2 180.85 49.9 170 53.7 159.4 57.7 164.65 64.7 170.05 68.9 176.4 64.7 186.3 58.05 190 64.7 193.85 72 185.15 74.45
L 155.15 90
Q 153.5 90.8 152.15 91.7 151.8 91.85 151.5 92.05
L 151.5 120.45 170 113.2
Q 177.9 111.05 176.3 120.25 183.35 119.8 190 119.15 211.6 116.95 229.25 112.25 235.25 110.65 240.2 108.95 242 99.85 242 90 242 81.5 240.65 73.6 239.35 66.2 236.9 59.35 230.4 41.1 215.65 26.35 189.3 0 152 0 151.75 0 151.5 0
L 151.5 41.6
Q 157.45 47.3 163.4 43.2 Z"/>

<path fill="#AFCFD4" stroke="none" d="
M 240.2 108.95
Q 235.25 110.65 229.25 112.25 211.6 116.95 190 119.15 198.25 127.65 190 130.65 201.3 129.85 211.9 128.6 224.05 127.1 235.25 125 238.5 117.25 240.2 108.95 Z"/>

<path fill="#C8DBDD" stroke="none" d="
M 300 92
Q 300 75.45 256.05 63.7 246.9 61.25 236.9 59.35 239.35 66.2 240.65 73.6 262 81.25 262 91.2 262 101.3 240.2 108.95 238.5 117.25 235.25 125 246.1 122.9 256.05 120.25 300 108.55 300 92 Z"/>
</g>

<path id="urano_0_Layer0_0_1_STROKES" stroke="#94CEE4" stroke-width="1" stroke-linejoin="round" stroke-linecap="round" fill="none" d="
M 190 119.15
Q 198.25 127.65 190 130.65
M 69.1 125.8
Q 65.9 118.3 64.15 110.25"/>
</defs>

<g filter="url(#Filter_1)" transform="matrix( 1, 0, 0, 1, 0,0) ">
<g transform="matrix( 1, 0, 0, 1, 3,-65.95) ">
<g transform="matrix( 0.4548187255859375, 0, 0, 0.448699951171875, 0,66.95) ">
<g transform="matrix( 1, 0, 0, 1, 0,0) ">
<use xlink:href="#saturno_0_Layer0_0_FILL"/>
</g>
</g>

<g transform="matrix( 0.16668701171875, 0, 0, 0.16668701171875, 252,92.25) ">
<g transform="matrix( 1, 0, 0, 1, 0,0) ">
<use xlink:href="#tierra_0_Layer0_0_FILL"/>
</g>
</g>

<g transform="matrix( 0.2539520263671875, 0, 0, 0.249969482421875, 162.5,92.25) ">
<g transform="matrix( 1, 0, 0, 1, 0,0) ">
<use xlink:href="#urano_0_Layer0_0_FILL"/>

<use xlink:href="#urano_0_Layer0_0_1_STROKES"/>
</g>
</g>
</g>
</g>
</svg>
