
<svg xmlns="http://www.w3.org/2000/svg" version="1.1" xmlns:xlink="http://www.w3.org/1999/xlink" preserveAspectRatio="none" x="0px" y="0px" width="230px" height="86px" viewBox="0 0 230 86">
<defs>
<filter id="Filter_1" x="-20%" y="-20%" width="140%" height="140%" color-interpolation-filters="sRGB">
<feColorMatrix in="SourceGraphic" type="matrix" values="1 0 0 0 0 0 1 0 0 0 0 0 1 0 0 0 0 0 0.6 0" result="result1"/>
</filter>

<g id="rebus_sun_0_Layer0_0_FILL">
<path fill="#FEC17B" stroke="none" d="
M 336 123.35
Q 336 96.294921875 325.85 73.4
L 101.8 178.3
Q 110.55 195.7 125.4 210.55 161.55 246.7 212.65 246.7 263.75 246.7 299.85 210.55 336 174.45 336 123.35
M 325.85 73.4
Q 325.558984375 72.7482421875 325.25 72.05 324.3318359375 70.090625 323.35 68.15 321.95 65.35 320.35 62.6 312.2 48.45 299.85 36.1 263.75 0 212.65 0 161.55 0 125.4 36.1 89.3 72.25 89.3 123.35 89.3 147.1 97.1 167.6 99.15 173.05 101.8 178.3
L 325.85 73.4 Z"/>

<path fill="#4EEFCB" stroke="none" d="
M 494.6 168.35
Q 511.45 151.6 511.45 127.9 511.45 104.15 494.6 87.4 477.75 70.6 453.95 70.6 430.1 70.6 413.3 87.4 396.45 104.15 396.45 127.9 396.45 151.6 413.3 168.35 430.1 185.1 453.95 185.1 477.75 185.1 494.6 168.35 Z"/>

<path fill="#1394EA" stroke="none" d="
M 651.3 168.35
Q 668.15 151.6 668.15 127.9 668.15 104.15 651.3 87.4 634.45 70.6 610.65 70.6 586.8 70.6 570 87.4 553.15 104.15 553.15 127.9 553.15 151.6 570 168.35 586.8 185.1 610.65 185.1 634.45 185.1 651.3 168.35 Z"/>
</g>

<path id="rebus_sun_0_Layer0_0_1_STROKES" stroke="#F9AE85" stroke-width="15" stroke-linejoin="round" stroke-linecap="round" fill="none" d="
M 325.85 73.425
L 440 20
M 0 226.15
L 101.8 178.3 325.85 73.425"/>
</defs>

<g transform="matrix( 0.332275390625, 0, 0, 0.3323822021484375, 4.5,2) ">
<g transform="matrix( 1, 0, 0, 1, 0,0) ">
<use filter="url(#Filter_1)" xlink:href="#rebus_sun_0_Layer0_0_FILL"/>

<use filter="url(#Filter_1)" xlink:href="#rebus_sun_0_Layer0_0_1_STROKES"/>
</g>
</g>
</svg>
