
<svg xmlns="http://www.w3.org/2000/svg" version="1.1" xmlns:xlink="http://www.w3.org/1999/xlink" preserveAspectRatio="none" x="0px" y="0px" width="122px" height="100px" viewBox="0 0 122 100">
<defs>
<filter id="Filter_1" x="-20%" y="-20%" width="140%" height="140%" color-interpolation-filters="sRGB">
<feColorMatrix in="SourceGraphic" type="matrix" values="1 0 0 0 0 0 1 0 0 0 0 0 1 0 0 0 0 0 0.2 0" result="result1"/>
</filter>

<g id="comillas_0_Layer0_0_FILL">
<path fill="#8F86DE" stroke="none" d="
M 61.75 10
L 51.75 0
Q -19.6 45.05 7.4 112.95 8.3 115.95 9.85 118.7
L 10.1 119.2
Q 10.35 119.6 10.6 120 12.8 123.6 15.95 126.75 26.2 137 40.75 137 55.25 137 65.45 126.75 75.75 116.55 75.75 102 75.75 87.5 65.45 77.25 55.25 67 40.75 67 30.1 67 21.75 72.5 15.75 31.95 61.75 10
M 153.65 10
L 143.65 0
Q 72.3 45.05 99.3 112.95 100.2 115.95 101.75 118.7
L 102 119.2
Q 102.25 119.6 102.5 120 104.7 123.6 107.85 126.75 118.1 137 132.65 137 147.15 137 157.35 126.75 167.65 116.55 167.65 102 167.65 87.5 157.35 77.25 147.15 67 132.65 67 122 67 113.65 72.5 107.65 31.95 153.65 10 Z"/>
</g>
</defs>

<g transform="matrix( -0.72979736328125, 0, 0, -0.72991943359375, 122.35,100) ">
<g transform="matrix( 1, 0, 0, 1, 0,0) ">
<use filter="url(#Filter_1)" xlink:href="#comillas_0_Layer0_0_FILL"/>
</g>
</g>
</svg>
