
<svg xmlns="http://www.w3.org/2000/svg" version="1.1" xmlns:xlink="http://www.w3.org/1999/xlink" preserveAspectRatio="none" x="0px" y="0px" width="900px" height="100px" viewBox="0 0 900 100">
<defs>
<g id="montanas_0_Layer0_0_FILL">
<path fill="#291556" stroke="none" d="
M 263.15 104.65
L 209.3 64.45 43.55 104.65 263.15 104.65
M 458.35 65.65
L 382.1 104.65 528.15 104.65 458.35 65.65
M 373.4 104.65
L 418.6 20.35 279.6 104.65 373.4 104.65
M 559.55 43.6
L 576.35 1.95 418.6 20.35 559.55 43.6
M 655.2 104.65
L 769.15 104.65 773.1 43.15 669.95 96.95 655.2 104.65
M 989.95 65.25
L 989.95 53.6 875.1 7 920.75 104.65 937.7 104.65 989.95 65.25 Z"/>

<path fill="#433B8B" stroke="none" d="
M 263.15 104.65
L 279.6 104.65 418.6 20.35 209.3 64.45 263.15 104.65
M 373.4 104.65
L 382.1 104.65 458.35 65.65 559.55 43.6 418.6 20.35 373.4 104.65
M 576.35 1.95
L 559.55 43.6 676.25 -0.1 576.35 1.95
M 669.95 96.95
L 773.1 43.15 676.25 -0.1 669.95 96.95
M 773.1 43.15
L 769.15 104.65 905.05 104.65 773.1 43.15 Z"/>

<path fill="#432C96" stroke="none" d="
M 528.15 104.65
L 631.4 104.65 559.55 43.6 458.35 65.65 528.15 104.65 Z"/>

<path fill="#281757" stroke="none" d="
M 655.2 104.65
L 669.95 96.95 676.25 -0.1 559.55 43.6 631.4 104.65 655.2 104.65
M 905.05 104.65
L 920.75 104.65 875.1 7 773.1 43.15 905.05 104.65
M 989.95 104.65
L 989.95 65.25 937.7 104.65 989.95 104.65 Z"/>
</g>
</defs>

<g transform="matrix( 0.95098876953125, 0, 0, 0.95465087890625, -41.4,0.1) ">
<g transform="matrix( 1, 0, 0, 1, 0,0) ">
<use xlink:href="#montanas_0_Layer0_0_FILL"/>
</g>
</g>
</svg>
