
<svg xmlns="http://www.w3.org/2000/svg" version="1.1" xmlns:xlink="http://www.w3.org/1999/xlink" preserveAspectRatio="none" x="0px" y="0px" width="900px" height="175px" viewBox="0 0 900 175">
<defs>
<filter id="Filter_1" x="-20%" y="-20%" width="140%" height="140%" color-interpolation-filters="sRGB">
<feFlood flood-color="#000000" flood-opacity="1" in="SourceGraphic" result="result1"/>

<feComposite in2="SourceGraphic" in="result1" operator="in" result="result2"/>

<feGaussianBlur in="result2" stdDeviation="0,0" result="result3"/>

<feOffset dx="3.061616997868383e-16" dy="5" in="result3" result="result4"/>

<feComposite in2="result4" in="SourceGraphic" operator="over" result="result5"/>
</filter>

<g id="rebus_logo_1_0_Layer0_0_FILL">
<path fill="#8F86DC" stroke="none" d="
M 9.8 1.45
L 8.3 1.45 0 18.25 1.5 18.25 9.8 1.45
M 14.35 0
L 13.1 0 13.1 4.3 14.35 4.3 14.35 0
M 25.1 9
Q 25.1 8.45 24.65 7.95 24.2 7.45 23.4 7.45 22.5 7.45 21.55 8.2 20.65 8.9 20.2 10 20.2 8.4 19.8 7.45 17.95 8.05 16.8 8.15
L 16.8 8.7 17.1 8.7
Q 17.85 8.7 18.15 8.95 18.45 9.15 18.5 9.6
L 18.5 16.5
Q 18.45 16.9 18.15 17.1 17.8 17.3 17.1 17.3
L 16.8 17.3 16.8 17.85 22.15 17.85 22.15 17.3 21.8 17.3
Q 21 17.3 20.7 17.05 20.4 16.85 20.35 16.45
L 20.3 12.65
Q 20.3 11.3 20.5 10.55 20.75 9.75 21.45 9.05 22.2 8.35 22.7 8.35 23.15 8.35 23.35 8.95 23.7 9.85 24.3 9.85 24.65 9.85 24.9 9.6 25.1 9.35 25.1 9
M 34.55 8.6
Q 34.2 8.25 33.6 8 33.05 7.75 32.3 7.6 31.55 7.45 30.8 7.45 29.6 7.45 28.8 7.65 28 7.9 27.55 8.25 27.05 8.65 26.85 9.15 26.6 9.65 26.6 10.2 26.6 10.55 26.75 10.9
L 27.25 11.5
Q 27.55 11.8 27.95 12 28.4 12.2 28.95 12.25 27.5 12.6 26.8 13.4 26.1 14.2 26.1 15.35 26.1 16 26.35 16.55 26.65 17.05 27.25 17.45 27.8 17.85 28.7 18.05 29.65 18.25 30.9 18.25 32.75 18.25 33.85 17.55 34.9 16.8 35.3 15.4
L 34.75 15.4
Q 34.45 16.5 33.6 17.05 32.8 17.6 31.3 17.6 30.5 17.6 29.95 17.45 29.35 17.25 28.95 16.95 28.55 16.6 28.35 16.2 28.15 15.75 28.15 15.25 28.15 14.55 28.3 14.1 28.45 13.65 28.85 13.4 29.25 13.1 29.85 12.95
L 31.35 12.65 31.85 12.6 32.3 12.5 32.65 12.3
Q 32.8 12.2 32.8 12
L 32.75 11.8 32.55 11.75 32.2 11.75 31.45 11.9 30.25 11.8
Q 29.7 11.75 29.35 11.55 29 11.35 28.8 11 28.65 10.65 28.65 10.1
L 28.8 9.35
Q 28.9 9 29.2 8.7 29.45 8.4 29.85 8.2 30.3 8.05 30.85 8.05 31.75 8.05 32.35 8.3 32.95 8.55 33.1 9.3 33.3 10.25 34.1 10.25 34.45 10.25 34.65 9.95 34.85 9.7 34.85 9.4 34.85 9 34.55 8.6
M 43.25 7.45
Q 42.35 7.45 41.45 7.85 40.6 8.2 39.75 9
L 39.75 1.05 39.5 1.05
Q 39.1 1.25 38.1 1.4
L 36.35 1.6 36.35 2.15
Q 37.15 2.15 37.5 2.35 37.8 2.55 37.9 3
L 38 18.25 38.45 18.25
Q 38.95 17.2 39.75 16.4 40.3 17.35 41.15 17.8 41.95 18.25 43.1 18.25 45.35 18.25 46.75 16.7 48.15 15.15 48.15 12.8 48.15 10.45 46.8 8.95 45.4 7.45 43.25 7.45
M 42.95 8.1
Q 44.4 8.1 45.3 9.25 46.15 10.45 46.15 12.65 46.15 15.1 45.2 16.4 44.3 17.7 42.7 17.7 41.7 17.7 40.9 17.05 40.15 16.45 39.95 15.8 39.75 15.15 39.75 13.6
L 39.75 9.7
Q 40.5 8.9 41.3 8.5 42.1 8.1 42.95 8.1
M 61.45 17.85
L 61.45 17.3
Q 60.65 17.3 60.35 17.1 60 16.85 59.95 16.45
L 59.9 7.85 56.4 7.85 56.4 8.4 56.7 8.4
Q 57.55 8.4 57.85 8.7 58.1 8.95 58.15 9.3
L 58.15 13.55
Q 58.15 14.8 57.85 15.5 57.55 16.2 56.7 16.8 55.85 17.45 54.9 17.45 54.25 17.45 53.75 17.1 53.25 16.75 53.1 16.3 53 15.8 53 14.8
L 53 7.85 49.6 7.85 49.6 8.4
Q 50.45 8.4 50.8 8.6 51.1 8.8 51.15 9.15
L 51.25 14.7
Q 51.25 16 51.55 16.7 51.8 17.35 52.6 17.8 53.35 18.25 54.35 18.25 55.5 18.25 56.45 17.65 57.4 17.1 58.15 15.9 58.2 17.55 58.6 18.25
L 58.75 18.25
Q 59.6 17.85 61.45 17.85
M 63.1 10.25
Q 63.1 11.25 63.75 12 64.4 12.7 65.9 13.45 67.35 14.15 67.85 14.65 68.35 15.15 68.35 15.95 68.35 16.6 67.9 17.15 67.45 17.75 66.5 17.75 64.35 17.75 63.55 14.9
L 63.05 14.9 63.05 18.15 63.55 18.15
Q 63.75 17.5 64.1 17.1 65.15 18.25 66.55 18.25 67.85 18.25 68.7 17.45 69.55 16.6 69.55 15.3 69.55 14.5 69.1 13.6 68.65 12.7 66.55 11.75 65.2 11.1 64.7 10.65 64.2 10.15 64.2 9.5 64.2 8.9 64.65 8.45 65.1 8 65.8 8 66.75 8 67.5 8.8 68.2 9.6 68.4 10.7
L 68.85 10.7 68.85 7.6 68.4 7.6
Q 68.15 8.35 67.95 8.5 67.1 7.45 65.8 7.45 64.5 7.45 63.8 8.35 63.1 9.25 63.1 10.25 Z"/>

<path fill="#F663AB" stroke="none" d="
M 72 18.25
L 73.5 18.25 81.8 1.45 80.3 1.45 72 18.25
M 85.45 9.25
Q 85.65 9.65 85.65 11.4
L 85.6 16.45
Q 85.55 16.8 85.3 17.05 85 17.3 84.15 17.3
L 83.75 17.3 83.75 17.85 89.1 17.85 89.1 17.3 88.85 17.3
Q 88.1 17.3 87.8 17.05 87.5 16.85 87.45 16.45
L 87.4 7.45 87.1 7.45
Q 85.9 7.9 83.75 8.1
L 83.75 8.65 84.05 8.65 85.05 8.75
Q 85.3 8.85 85.45 9.25
M 86.3 3.65
Q 86.8 3.65 87.2 3.25 87.55 2.9 87.55 2.35 87.55 1.8 87.2 1.45 86.8 1.05 86.3 1.05 85.75 1.05 85.4 1.45 85 1.8 85 2.35 85 2.9 85.4 3.25 85.75 3.65 86.3 3.65
M 95.85 7.45
Q 93.6 7.45 92.05 9 90.55 10.55 90.55 12.85 90.55 15.3 92.1 16.8 93.65 18.25 95.85 18.25 98.05 18.25 99.6 16.8 101.2 15.35 101.2 12.85 101.2 10.55 99.65 9 98.1 7.45 95.85 7.45
M 95.85 8
Q 97.45 8 98.3 9.15 99.15 10.25 99.15 12.9 99.15 15.55 98.3 16.65 97.45 17.7 95.85 17.7 94.3 17.7 93.4 16.65 92.55 15.55 92.55 12.9 92.55 10.25 93.4 9.15 94.25 8 95.85 8 Z"/>
</g>
</defs>

<g filter="url(#Filter_1)" transform="matrix( 1, 0, 0, 1, 0,0) ">
<g transform="matrix( 8.89300537109375, 0, 0, 9.315109252929688, 0,0) ">
<g transform="matrix( 1, 0, 0, 1, 0,0) ">
<use xlink:href="#rebus_logo_1_0_Layer0_0_FILL"/>
</g>
</g>
</g>
</svg>
